<?xml version="1.0" standalone="no"?><svg xmlns="http://www.w3.org/2000/svg" viewBox="0 0 1440 320"><path fill="#102372" fill-opacity="1" d="M0,96L40,128C80,160,160,224,240,234.7C320,245,400,203,480,165.3C560,128,640,96,720,106.7C800,117,880,171,960,176C1040,181,1120,139,1200,101.3C1280,64,1360,32,1400,16L1440,0L1440,320L1400,320C1360,320,1280,320,1200,320C1120,320,1040,320,960,320C880,320,800,320,720,320C640,320,560,320,480,320C400,320,320,320,240,320C160,320,80,320,40,320L0,320Z"></path></svg>